<svg xmlns="http://www.w3.org/2000/svg" viewBox="0 0 1440 420" role="img" aria-labelledby="title desc">
  <title id="title">Bannière expertises Swift Connexion</title>
  <desc id="desc">Fond bleu avec illustrations médicales, de balance et de transport illustrant les expertises sectorielles.</desc>
  <defs>
    <linearGradient id="bg" x1="0%" y1="0%" x2="100%" y2="0%">
      <stop offset="0%" stop-color="#1a2f6b" />
      <stop offset="55%" stop-color="#123979" />
      <stop offset="100%" stop-color="#0b2c66" />
    </linearGradient>
    <radialGradient id="glow" cx="75%" cy="30%" r="65%">
      <stop offset="0%" stop-color="#ffffff" stop-opacity="0.25" />
      <stop offset="100%" stop-color="#ffffff" stop-opacity="0" />
    </radialGradient>
    <linearGradient id="wave" x1="0%" y1="0%" x2="100%" y2="100%">
      <stop offset="0%" stop-color="#2a5fb0" stop-opacity="0.2" />
      <stop offset="100%" stop-color="#1d3d8f" stop-opacity="0" />
    </linearGradient>
    <filter id="shadow" x="-10%" y="-10%" width="120%" height="120%">
      <feDropShadow dx="0" dy="12" stdDeviation="18" flood-color="#08163f" flood-opacity="0.35" />
    </filter>
  </defs>
  <rect width="1440" height="420" fill="url(#bg)" />
  <rect width="1440" height="420" fill="url(#glow)" />
  <path d="M0 260 Q240 320 520 300 T1040 290 T1440 340 V420 H0 Z" fill="#163673" opacity="0.6" />
  <path d="M0 290 Q220 350 520 340 T1080 330 T1440 360 V420 H0 Z" fill="url(#wave)" />
  <g fill="none" stroke="#f6f9ff" stroke-width="3" stroke-linecap="round" stroke-linejoin="round" opacity="0.7">
    <g transform="translate(180 120) scale(1.05)">
      <path d="M48 8c13.255 0 24 10.745 24 24s-10.745 24-24 24S24 45.255 24 32 34.745 8 48 8z" />
      <path d="M24 32C10.745 32 0 21.255 0 8h96c0 13.255-10.745 24-24 24" />
      <path d="M36 56v12m24-12v12" />
    </g>
    <g transform="translate(360 120)">
      <path d="M64 0v80" />
      <path d="M32 32h64" />
      <path d="M16 80h96" />
      <path d="M32 32L16 80l48-16 48 16-16-48" />
    </g>
    <g transform="translate(1180 120)">
      <rect x="12" y="36" width="92" height="44" rx="12" />
      <path d="M24 36L50 8h44l-12 28" />
      <circle cx="44" cy="92" r="16" />
      <circle cx="92" cy="92" r="16" />
    </g>
    <g transform="translate(940 120)">
      <path d="M24 8h56l24 24-24 24H24z" />
      <path d="M48 0v64" />
      <path d="M24 32h80" />
    </g>
  </g>
  <g opacity="0.35" fill="#0c2150">
    <circle cx="1040" cy="80" r="14" />
    <circle cx="220" cy="80" r="10" />
    <circle cx="1260" cy="60" r="8" />
  </g>
</svg>
