<svg xmlns="http://www.w3.org/2000/svg" viewBox="0 0 1920 1080" role="img" aria-labelledby="title desc">
  <title id="title">Bannière des expertises Swift Connexion</title>
  <desc id="desc">Fond bleu dégradé avec titres et pictogrammes illustrant les expertises sectorielles Swift Connexion.</desc>
  <defs>
    <linearGradient id="bg" x1="0" y1="0" x2="0" y2="1">
      <stop offset="0%" stop-color="#0b3d91" />
      <stop offset="55%" stop-color="#0f56b5" />
      <stop offset="100%" stop-color="#ffffff" />
    </linearGradient>
    <linearGradient id="shine" x1="0" y1="0" x2="1" y2="1">
      <stop offset="0%" stop-color="#ffffff" stop-opacity="0.25" />
      <stop offset="100%" stop-color="#ffffff" stop-opacity="0" />
    </linearGradient>
    <filter id="shadow" x="-0.1" y="-0.1" width="1.2" height="1.2">
      <feDropShadow dx="0" dy="12" stdDeviation="18" flood-color="#08275f" flood-opacity="0.25" />
    </filter>
    <style>
      text { font-family: 'Inter', 'Segoe UI', Roboto, sans-serif; letter-spacing: 0; }
      .title { font-size: 76px; font-weight: 600; fill: #ffffff; }
      .subtitle { font-size: 32px; fill: rgba(255,255,255,0.85); }
      .label { font-size: 30px; font-weight: 600; fill: #0b3d91; text-anchor: middle; }
      .label-sub { font-size: 26px; fill: rgba(11,61,145,0.8); text-anchor: middle; }
    </style>
  </defs>
  <rect width="1920" height="1080" fill="url(#bg)" />
  <rect y="520" width="1920" height="560" fill="#ffffff" />
  <path d="M0 520 Q320 600 640 560 T1280 560 T1920 640 V1080 H0 Z" fill="#ffffff" opacity="0.35" />
  <path d="M0 460 Q260 540 620 520 T1300 520 T1920 600" fill="url(#shine)" opacity="0.6" />
  <g transform="translate(960 280)" text-anchor="middle">
    <text class="title">Nos expertises sectorielles</text>
    <text class="subtitle" y="96">Des solutions de transport adaptées à chaque métier, avec des engagements spécifiques et un savoir-faire reconnu.</text>
  </g>
  <g transform="translate(960 760)" filter="url(#shadow)">
    <rect x="-700" y="-220" width="1400" height="360" rx="48" fill="#ffffff" />
  </g>
  <g transform="translate(960 720)">
    <g transform="translate(-600 0)">
      <circle cx="0" cy="-120" r="70" fill="#e8f3ff" />
      <path d="M-32 -132 h64 v24 h24 v48 h-24 v24 h-64 v-24 h-24 v-48 h24z" fill="#0b8f5a" />
      <path d="M-8 -112 v32 h16 v-32 h-16z" fill="#ffffff" />
      <path d="M-24 -96 h48" stroke="#ffffff" stroke-width="12" stroke-linecap="round" />
      <text class="label" y="40">SANTÉ ET MÉDICALE</text>
    </g>
    <g transform="translate(-300 0)">
      <circle cx="0" cy="-120" r="70" fill="#e7f0ff" />
      <path d="M-54 -120 q12 -40 54 -40 t54 40 q-12 40 -54 40 t-54 -40z" fill="#1b4c94" />
      <rect x="-36" y="-120" width="72" height="12" rx="6" fill="#ffffff" />
      <circle cx="-22" cy="-96" r="12" fill="#ffffff" />
      <circle cx="22" cy="-96" r="12" fill="#ffffff" />
      <circle cx="-22" cy="-96" r="6" fill="#1b4c94" />
      <circle cx="22" cy="-96" r="6" fill="#1b4c94" />
      <text class="label" y="40">OPTIQUE</text>
    </g>
    <g transform="translate(0 0)">
      <circle cx="0" cy="-120" r="70" fill="#eaf0ff" />
      <path d="M0 -180 l120 70 h-56 v60 h-128 v-60 h-56z" fill="#f8b84a" />
      <path d="M-32 -70 h64 v90 h-64z" fill="#ffffff" stroke="#f0a227" stroke-width="10" />
      <path d="M0 -70 v90" stroke="#f0a227" stroke-width="10" />
      <circle cx="0" cy="40" r="54" fill="#ffffff" stroke="#1b4c94" stroke-width="12" />
      <path d="M0 40 v-54" stroke="#1b4c94" stroke-width="12" stroke-linecap="round" />
      <text class="label" y="140">JURIDIQUE</text>
    </g>
    <g transform="translate(300 0)">
      <circle cx="0" cy="-120" r="70" fill="#e6f5ff" />
      <path d="M0 -190 l46 46 -36 36 42 42 -46 46 -42 -42 -42 42 -46 -46 42 -42 -36 -36 46 -46 36 36z" fill="#2c8ad6" />
      <circle cx="0" cy="-70" r="26" fill="#ffffff" />
      <circle cx="0" cy="-70" r="10" fill="#2c8ad6" />
      <text class="label" y="40">B2B</text>
    </g>
    <g transform="translate(600 0)">
      <circle cx="0" cy="-120" r="70" fill="#f0f0ff" />
      <path d="M-48 -60 h96 v36 c0 40 -32 72 -72 72s-72 -32 -72 -72v-36z" fill="#fcbc3f" />
      <path d="M-16 -84 h32 v24 h-32z" fill="#ffffff" />
      <path d="M-44 -128 h88 v32 h-88z" fill="#2b72d3" />
      <path d="M0 -168 l28 56 h-56z" fill="#2b72d3" />
      <circle cx="0" cy="12" r="16" fill="#2b72d3" />
      <path d="M0 28 v36" stroke="#2b72d3" stroke-width="10" stroke-linecap="round" />
      <text class="label" y="40">ÉVÉNEMENTIEL</text>
    </g>
  </g>
</svg>
